<?xml version="1.0" encoding="UTF-8"?>
<svg width="181px" height="91px" viewBox="0 0 181 91" version="1.1" xmlns="http://www.w3.org/2000/svg" xmlns:xlink="http://www.w3.org/1999/xlink">
    <title>切片</title>
    <g id="2D设备图" stroke="none" stroke-width="1" fill="none" fill-rule="evenodd">
        <g id="2D设备-有状态" transform="translate(-752.000000, -6104.000000)">
            <g id="刮板输送机_2D_灰" transform="translate(752.053590, 6104.970000)">
                <g id="刮板输送机_机头_灰" transform="translate(0.000000, 32.500000)" stroke="#010101">
                    <path d="M29.5,21.5018266 L29.5,24.5 L0.5,24.5 L0.5,21.5018266 L29.5,21.5018266 Z" id="路径" fill="#88909A"></path>
                    <path d="M29.5,0.5 L29.5,21.4899535 L23.5,21.4899535 L23.5,0.5 L29.5,0.5 Z" id="路径" fill="#B0B9C4"></path>
                    <path d="M23.5,0.5 L23.5,21.5 L0.5,21.5 L0.5,0.5 L23.5,0.5 Z" id="路径" fill="#B0B9C4"></path>
                    <path d="M14.5,0.5 L14.5,21.4899535 L9.5,21.4899535 L9.5,0.5 L14.5,0.5 Z" id="路径" fill="#D4D9DF"></path>
                    <path d="M12.999315,-0.505023249 L12.999315,22.4949768 L11.000685,22.4949768 L11.000685,-0.505023249 L12.999315,-0.505023249 Z" id="路径" fill="#D4D9DF" transform="translate(12.000000, 10.994977) rotate(-90.000000) translate(-12.000000, -10.994977) "></path>
                    <ellipse id="椭圆形" fill="#D4D9DF" cx="12" cy="10.9949768" rx="4.5" ry="4.49771671"></ellipse>
                    <ellipse id="椭圆形" fill="#D4D9DF" cx="12" cy="10.9949768" rx="2.5" ry="2.49863002"></ellipse>
                </g>
                <g id="刮板输送机_中间_灰" transform="translate(29.114334, 32.500000)" stroke="#010101">
                    <path d="M110.5,0.5 L110.5,21.5 L0.5,21.5 L0.5,0.5 L110.5,0.5 Z" id="路径" fill="#D4D9DF"></path>
                    <path d="M25.6237978,21.5 L25.6237978,24.5 L22.6237978,24.5 L22.6237978,21.5 L25.6237978,21.5 Z" id="路径" fill="#88909A"></path>
                    <path d="M46.5412697,21.5 L46.5412697,24.5 L43.5412697,24.5 L43.5412697,21.5 L46.5412697,21.5 Z" id="路径" fill="#88909A"></path>
                    <path d="M67.4587416,21.5 L67.4587416,24.5 L64.4587416,24.5 L64.4587416,21.5 L67.4587416,21.5 Z" id="路径" fill="#88909A"></path>
                    <path d="M88.3762134,21.5 L88.3762134,24.5 L85.3762134,24.5 L85.3762134,21.5 L88.3762134,21.5 Z" id="路径" fill="#88909A"></path>
                </g>
                <g id="刮板输送机_机尾_灰" transform="translate(139.000000, 32.500000)">
                    <path d="M40.5,21.5 L40.5,24.5 L0.5,24.5 L0.5,21.5 L40.5,21.5 Z" id="路径" stroke="#010101" fill="#88909A"></path>
                    <path d="M40.5,0.5 L40.5,21.5 L1.5,21.5 L1.5,0.5 L40.5,0.5 Z" id="路径" stroke="#010101" fill="#B0B9C4"></path>
                    <path d="M40.5,5 L40.5,17 L0.647203837,17 L0.647203837,5 L40.5,5 Z" id="路径" stroke="#010101" fill="#B0B9C4"></path>
                    <path d="M32.8283944,8.5 C33.5187503,8.5 34.1437503,8.77982203 34.5961613,9.23223305 C35.0485724,9.68464406 35.3283944,10.3096441 35.3283944,11 C35.3283944,11.6903559 35.0485724,12.3153559 34.5961613,12.767767 C34.1437503,13.220178 33.5187503,13.5 32.8283944,13.5 L32.8283944,13.5 L13.6376534,13.5 C12.9472975,13.5 12.3222975,13.220178 11.8698865,12.767767 C11.4174755,12.3153559 11.1376534,11.6903559 11.1376534,11 C11.1376534,10.3096441 11.4174755,9.68464406 11.8698865,9.23223305 C12.3222975,8.77982203 12.9472975,8.5 13.6376534,8.5 L13.6376534,8.5 Z" id="路径" stroke="#010101" fill="#D4D9DF"></path>
                    <path d="M40.3895801,0.5 L40.3895801,21.5 L37.3895801,21.5 L37.3895801,0.5 L40.3895801,0.5 Z" id="路径" stroke="#010101" fill="#B0B9C4"></path>
                    <path d="M9.37034594,8.47315502 C9.47614233,7.99814 10.1096154,7.95133397 10.3056492,8.35606039 L10.3406092,8.44970719 L11.243,11.746 L12.2372273,8.93222802 C12.3189445,8.70076992 12.5536942,8.56715106 12.7877324,8.6048822 L12.8751631,8.62720698 C13.1066212,8.70892421 13.2402401,8.94367392 13.2025089,9.17771214 L13.1801842,9.26514284 L11.6551803,13.5846046 C11.5029749,14.0157155 10.9168837,14.0237352 10.7341571,13.6387858 L10.7014804,13.5502928 L9.908,10.655 L9.27991519,13.4790911 C9.17818156,13.9358647 8.5779766,14.0031433 8.36126324,13.6261934 L8.32101585,13.5385991 L7.267,10.589 L6.81162581,13.4491093 C6.73315636,13.9413279 6.08073821,14.0150743 5.87394742,13.6026678 L5.83883306,13.5136845 L5.041,10.849 L4.64136535,13.4465799 C4.57123443,13.9014632 3.9910899,14.0152777 3.74286923,13.6658752 L3.69506639,13.5838687 L2.67123014,11.4153996 C2.55333096,11.165691 2.66018362,10.867686 2.90989223,10.7497868 C3.13185545,10.6449876 3.39197877,10.71777 3.52984803,10.910616 L3.57550504,10.9884489 L3.902,11.68 L4.39130811,8.50566619 C4.46745575,8.01175728 5.12190202,7.93608997 5.32928542,8.34936622 L5.36449745,8.43856166 L6.169,11.129 L6.5874848,8.5031368 C6.66386535,8.02402133 7.29183076,7.936262 7.513479,8.3287251 L7.55210726,8.41364702 L8.68,11.571 L9.37034594,8.47315502 Z" id="路径-4" fill="#010101" fill-rule="nonzero"></path>
                    <circle id="椭圆形" stroke="#010101" fill="#D4D9DF" cx="13.6376534" cy="11" r="2.5"></circle>
                    <path d="M3.5,0.5 L3.5,21.5 L0.5,21.5 L0.5,0.5 L3.5,0.5 Z" id="路径" stroke="#010101" fill="#B0B9C4"></path>
                </g>
            </g>
        </g>
    </g>
</svg>