<?xml version="1.0" encoding="UTF-8"?>
<svg width="31px" height="26px" viewBox="0 0 31 26" version="1.1" xmlns="http://www.w3.org/2000/svg" xmlns:xlink="http://www.w3.org/1999/xlink">
    <title>刮板输送机_机头_灰</title>
    <g id="2D设备图" stroke="none" stroke-width="1" fill="none" fill-rule="evenodd">
        <g id="刮板输送机" transform="translate(-136.000000, -377.000000)" stroke="#010101">
            <g id="刮板输送机_机头_灰" transform="translate(136.053590, 377.470000)">
                <path d="M29.5,21.5018266 L29.5,24.5 L0.5,24.5 L0.5,21.5018266 L29.5,21.5018266 Z" id="路径" fill="#88909A"></path>
                <path d="M29.5,0.5 L29.5,21.4899535 L23.5,21.4899535 L23.5,0.5 L29.5,0.5 Z" id="路径" fill="#B0B9C4"></path>
                <path d="M23.5,0.5 L23.5,21.5 L0.5,21.5 L0.5,0.5 L23.5,0.5 Z" id="路径" fill="#B0B9C4"></path>
                <path d="M14.5,0.5 L14.5,21.4899535 L9.5,21.4899535 L9.5,0.5 L14.5,0.5 Z" id="路径" fill="#D4D9DF"></path>
                <path d="M12.999315,-0.505023249 L12.999315,22.4949768 L11.000685,22.4949768 L11.000685,-0.505023249 L12.999315,-0.505023249 Z" id="路径" fill="#D4D9DF" transform="translate(12.000000, 10.994977) rotate(-90.000000) translate(-12.000000, -10.994977) "></path>
                <ellipse id="椭圆形" fill="#D4D9DF" cx="12" cy="10.9949768" rx="4.5" ry="4.49771671"></ellipse>
                <ellipse id="椭圆形" fill="#D4D9DF" cx="12" cy="10.9949768" rx="2.5" ry="2.49863002"></ellipse>
            </g>
        </g>
    </g>
</svg>